<?xml version="1.0" standalone="no"?>
<!DOCTYPE svg PUBLIC "-//W3C//DTD SVG 20010904//EN"
 "http://www.w3.org/TR/2001/REC-SVG-20010904/DTD/svg10.dtd">
<svg version="1.0" xmlns="http://www.w3.org/2000/svg"
 width="2082.000000pt" height="2082.000000pt" viewBox="0 0 2082.000000 2082.000000"
 preserveAspectRatio="xMidYMid meet">
<metadata>
Created by potrace 1.14, written by Peter Selinger 2001-2017
</metadata>
<g transform="translate(0.000000,2082.000000) scale(0.100000,-0.100000)"
fill="#000000" stroke="none">
<path d="M13940 14084 c-424 -42 -703 -98 -1060 -214 -202 -65 -499 -206 -690
-325 -457 -288 -823 -691 -1094 -1206 -324 -617 -545 -1560 -506 -2166 54
-849 415 -1732 976 -2383 413 -480 857 -757 1495 -930 395 -108 724 -150 1180
-150 626 0 1143 98 1644 310 783 333 1465 1143 1787 2123 32 98 58 185 58 193
0 12 -107 14 -767 14 -423 0 -886 -3 -1030 -7 l-261 -6 -91 -141 c-116 -181
-179 -257 -280 -337 -412 -331 -1092 -405 -1650 -181 -320 130 -524 317 -679
627 -114 229 -204 535 -187 637 9 49 17 52 168 67 371 36 1311 50 3326 51
l1613 0 -6 43 c-6 39 -19 181 -46 467 -55 600 -133 1004 -270 1395 -174 497
-485 951 -895 1304 -489 422 -1120 670 -2042 806 -199 29 -457 32 -693 9z
m620 -1564 c288 -38 498 -110 644 -220 280 -213 613 -699 543 -794 -34 -47
-609 -71 -1667 -70 -1178 0 -1251 10 -1237 165 10 118 120 288 317 492 283
293 471 388 860 433 125 14 411 11 540 -6z"/>
<path d="M8890 13845 c-391 -18 -476 -32 -534 -90 -35 -35 -43 -57 -111 -330
-74 -298 -131 -509 -283 -1055 -60 -217 -135 -489 -166 -605 -183 -687 -244
-914 -302 -1125 -35 -129 -83 -302 -105 -385 -22 -82 -58 -208 -79 -280 -36
-120 -85 -311 -140 -544 -23 -99 -60 -193 -87 -223 -29 -33 -51 1 -132 205
-64 161 -109 296 -295 882 -85 270 -189 591 -230 715 -83 252 -219 691 -356
1153 -221 749 -371 1221 -472 1490 l-71 187 -632 0 -632 0 -10 -37 c-6 -21
-23 -85 -38 -143 -72 -277 -143 -522 -200 -700 -55 -170 -172 -541 -233 -740
-11 -36 -47 -150 -80 -255 -33 -104 -74 -235 -90 -290 -33 -112 -158 -520
-294 -965 -79 -260 -136 -442 -273 -880 -97 -312 -190 -567 -226 -621 -16 -23
-17 -24 -37 -6 -32 29 -68 128 -116 317 -25 96 -81 306 -126 465 -222 787
-339 1218 -596 2190 -65 244 -174 650 -214 790 -172 617 -223 794 -230 813 -7
15 -18 22 -38 22 -16 0 -150 7 -298 15 -639 35 -972 43 -1099 27 -63 -9 -65
-18 -30 -149 83 -305 467 -1610 654 -2223 28 -91 143 -478 256 -860 113 -382
228 -762 255 -845 61 -184 225 -742 355 -1205 291 -1038 364 -1271 449 -1445
65 -132 116 -194 194 -232 l57 -28 576 -3 c461 -2 578 0 586 10 6 7 61 186
123 398 61 212 248 849 415 1415 337 1147 441 1503 574 1965 139 488 243 814
330 1035 43 112 45 114 71 90 51 -46 109 -197 200 -515 73 -256 140 -477 175
-580 14 -41 89 -289 166 -550 198 -669 214 -722 281 -935 33 -104 75 -239 94
-298 44 -139 69 -239 88 -352 22 -126 164 -634 292 -1045 86 -275 146 -465
173 -550 l27 -85 665 0 664 0 13 40 c8 22 54 166 102 320 49 154 118 372 155
485 79 247 176 573 325 1095 186 654 248 861 325 1095 101 310 316 1004 445
1440 133 451 417 1380 518 1700 202 635 244 782 227 799 -31 31 -479 38 -975
16z"/>
<path d="M19825 8536 c-85 -21 -131 -52 -283 -190 -184 -167 -333 -321 -383
-398 -63 -98 -74 -144 -73 -298 0 -117 4 -147 28 -225 53 -176 142 -329 265
-458 164 -171 355 -257 578 -257 225 0 423 83 594 250 130 127 205 255 250
425 26 96 26 293 0 390 -52 200 -177 392 -351 539 -144 122 -282 192 -431 221
-95 18 -126 18 -194 1z"/>
</g>
</svg>
