<svg xmlns="http://www.w3.org/2000/svg" version="1.0" preserveAspectRatio="xMidYMid meet" width="1409.6pt" viewBox="0 0 1409.6 1706.4" fill-rule="evenodd"><g fill="#fff" stroke="none"><path d="M 567.2 68C 567.543 75.7802 564.698 83.5704 562.967 91.064C 560.078 103.581 557.21 115.641 553.631 128C 538.088 181.682 514.124 235.467 475.629 276.571C 457.604 295.818 437.136 314.14 416.8 330.943C 407.607 338.539 394.965 345.51 395.303 359.2C 395.576 370.246 403.074 378.909 410.328 386.369C 413.254 389.377 416.406 393.6 420.8 394.282C 441.086 397.429 464.247 394.4 484.8 394.4L 616 394.4C 637.922 394.4 670.45 398.294 687.169 381.569C 695.844 372.89 698.254 361.164 700.339 349.6C 704.638 325.762 707.993 299.328 704.571 275.2C 703.299 266.226 699.944 246.251 690.328 242.426C 672.954 235.515 659.962 261.411 648 268.889C 631.366 279.286 600.652 267.322 596.4 248.8C 586.138 204.094 629.338 180.071 668.8 186.661C 690.619 190.304 715.038 211.406 726.149 229.6C 755.113 277.026 747.249 348.662 719.28 395.064C 708.51 412.933 693.789 429.09 680.145 444.8C 663.282 464.215 646.456 483.598 628.871 502.399C 613.628 518.698 598.598 535.244 582.535 550.739C 556.598 575.762 531.503 602.162 507.231 628.799C 502.066 634.469 485.134 651.676 492.347 659.818C 495.176 663.01 500.846 663.091 504.8 663.658C 516.677 665.358 529.606 664 541.6 664C 577.497 664 613.807 662.526 649.6 660.071C 667.144 658.869 688.435 659.222 702.388 646.96C 709.299 640.886 712.497 632.202 716.001 624C 723.332 606.84 727.227 587.299 736.853 571.2C 747.974 552.598 770.292 533.051 790.4 552.8C 781.879 552.8 772.823 552.688 765.686 558.202C 760.081 562.534 756.808 571.298 754.134 577.6C 746.651 595.227 741.262 613.311 737.139 632C 735.428 639.762 735.184 647.424 734.058 655.2C 733.686 657.76 733.391 661.748 730.885 663.227C 728.061 664.894 720.815 661.617 717.6 661.154C 711.777 660.317 703.735 661.854 698.4 664.25C 680.198 672.427 674.09 688.608 665.916 705.6C 664.53 708.48 659.25 722.606 655.177 721.896C 648.292 720.694 647.269 701.142 645.217 696.001C 638.717 679.714 619.87 673.566 604 676.371C 587.463 679.293 577.815 690.022 569.939 704C 567.188 708.883 562.243 723.836 556.032 724.863C 552.938 725.374 552.87 721.206 552.572 719.2C 551.621 712.806 550.321 706.191 548.449 700C 542.33 679.766 527.1 678.126 508.8 682.606C 502.515 684.145 494.561 685.858 491.2 692C 502.762 691.897 520.888 681.135 530.753 692.242C 538.306 700.746 536.336 714.172 540.476 724C 542.538 728.896 546.147 734.261 552 734.333C 560.598 734.438 565.294 726.002 569.786 720C 579.307 707.274 593.31 684.531 612 687.806C 629.798 690.925 632.282 708.662 637.276 723.2C 640.196 731.7 647.733 737.318 656.8 734.317C 680.586 726.444 676.519 695.061 691.429 679.243C 695.588 674.831 704.806 668.516 711.2 669.98C 718.018 671.541 727.005 680.042 734.326 676.91C 739.94 674.509 741.192 665.927 742.798 660.8C 747.606 645.459 751.766 629.974 755.675 614.4C 759.055 600.937 764.47 587.964 769.756 575.2C 771.018 572.155 775.481 563.86 779.818 566.313C 783.822 568.577 782.01 574.891 781.4 578.4C 779.45 589.626 776.581 601.171 773.064 612L 754.328 672.8C 748.371 690.905 741.6 709.539 741.6 728.8C 741.6 739.826 737.046 762.647 750.4 767.2C 757.806 753.089 753.139 733.1 756.904 717.6C 764.19 687.601 773.879 658.447 782.368 628.8C 788.022 609.05 791.64 587.65 800 568.8C 805.96 572.278 804.232 581.926 803.968 588C 803.112 607.519 794.693 625.387 790.316 644C 788.878 650.118 782.926 664.626 791.441 668.318C 813.528 677.89 827.704 644.302 836.152 630.4C 845.808 614.504 852.272 596.58 862.048 580.8C 881.416 549.522 906.016 521.181 932.136 495.429C 944.72 483.02 959.656 473.549 972.336 461.533C 977.672 456.476 983.504 451.098 983.912 443.2C 984.792 426.062 957.288 417.85 945.736 410.398C 925.928 397.62 915.6 379.083 909.904 356.8C 902.432 327.555 903.168 292.542 917.952 265.6C 925.104 252.559 934.624 241.675 943.2 229.6C 947.152 224.038 951.992 218.474 950.184 211.2C 948.184 203.178 940.616 200.955 933.6 199.229C 918.664 195.553 902.872 196.552 888 193.001C 848.248 183.506 813.376 161.157 800.824 120.8C 796.146 105.774 798.749 88.8208 792.909 74.4C 790.715 68.9833 787.767 62.2178 781.6 60.458C 771.883 57.6854 760.777 66.6135 752.8 70.9562C 736.687 79.7279 713.171 92.1168 694.4 92.34C 660.58 92.7432 639.67 65.7979 611.2 53.3643C 601.874 49.2913 588.45 39.1237 577.631 44.5703C 567.888 49.4761 572.55 61.3842 567.2 68z"></path><path d="M 208.8 464C 206.31 477.414 207.765 491.981 207.169 505.6C 205.889 534.816 205.444 564.504 202.535 593.6C 201.414 604.818 200.309 616.065 198.464 627.2C 197.839 630.971 197.838 637.391 195.406 640.433C 186.798 651.199 167.959 657.251 156 663.274C 133.945 674.379 112.035 688.297 94.46 705.735C 83.0136 717.093 72.3001 729.837 64.4352 744C 60.4433 751.189 55.5634 765.188 48 768.8C 46.8858 775.97 41.929 780.311 38.9475 786.536C 34.3474 796.14 32.9495 808.088 30.4809 818.4C 29.1235 824.072 26.8727 830.168 28 836C 23.7619 839.704 24.9137 854.456 24.5118 860C 22.4018 889.12 31.4467 915.688 39.2 943.2C 40.1562 942.72 39.982 942.824 40.8 941.6C 46.2353 954.16 53.2899 966.776 64 975.744C 80.8168 989.816 110.886 993.488 130.4 982.872C 142.177 976.464 151.793 965.056 159.569 954.4C 178.397 928.608 189.574 897.88 197.275 867.2C 200.638 853.8 205.491 840.792 208.157 827.2C 209.763 819.008 209.2 810.528 210.935 802.4C 212.667 794.282 215.954 786.704 217.249 778.4C 222.275 746.164 225.038 713.628 231.451 681.6C 236.462 656.578 281.732 669.349 277.359 640C 274.034 617.682 247.338 632.972 233.6 633.6C 233.686 623.266 236.019 612.751 236.728 602.4C 238.478 576.858 238.849 551.168 239.969 525.6C 240.635 510.37 241.287 495.203 242.328 480C 242.766 473.599 242.055 466.182 243.954 460.004C 246.2 452.702 253.724 458.426 258.4 460.238C 271.004 465.12 281.39 460.989 280.769 446.4C 280.241 434.021 269.369 423.926 257.6 422.072C 236.666 418.776 212.381 422.197 192.8 429.629C 185.51 432.396 174.016 435.865 170.058 443.212C 168.842 445.47 168.802 447.9 168.802 450.4C 168.802 470.782 196.275 464.538 208.8 464z"></path><path fill="#111" d="M 184 450.4C 192.237 452.766 209.049 444.642 215.653 451.454C 218.546 454.438 217.386 459.45 217.828 463.2C 219.163 474.513 218.4 486.21 218.4 497.6C 218.4 530.682 215.27 563.889 212.136 596.8C 210.804 610.788 211.768 625.371 209.343 639.2C 206.462 655.634 193.174 658.227 180 663.947C 161.945 671.787 144.528 681.123 128.136 692.072C 83.3224 722.004 48.3914 775.805 39.0642 828.8C 31.7577 870.312 33.0497 914.664 57.7759 950.4C 71.6462 970.448 104.201 984.232 126.739 967.896C 143.692 955.6 154.633 936.216 163.12 917.6C 181.546 877.184 188.626 834.76 199.302 792C 204.871 769.691 208.754 744.564 210.328 721.6C 211.485 704.726 211.8 680.621 220.27 665.6C 225.197 656.862 232.352 654.005 241.6 651.312C 246.609 649.854 254.889 648.761 257.6 644L 233.6 644.8C 230.209 644.8 226.07 645.392 223.794 642.282C 221.403 639.015 222.4 633.411 222.4 629.6L 223.2 597.6C 223.257 562.036 225.613 526.665 227.169 491.2C 227.602 481.305 228.412 471.454 229.467 461.6C 229.994 456.686 229.903 450.482 233.051 446.403C 242.928 433.603 254.286 445.558 266.4 445.6C 265.884 436.185 254.296 433.98 246.4 433.631C 230.807 432.942 212.003 434.679 197.6 441.047C 192.518 443.294 186.534 445.125 184 450.4z"></path><path d="M 765.6 754.4C 774.912 753.155 780.361 741.763 784.494 734.4C 793.89 717.665 799.442 696.478 819.2 688.571C 822.616 687.204 826.008 687.047 829.6 687.693C 844.56 690.379 848.656 702.128 853.008 715.2C 855.888 723.864 860.504 734.25 871.2 734.25C 896.568 734.25 893.408 697.746 891.864 681.6C 891.448 677.254 889.048 668.892 891.224 664.967C 892.936 661.862 897.224 658.958 899.928 656.719C 903.456 653.804 907.4 649.274 912 648.242C 920.96 646.234 930.08 657.39 932.8 664.8C 923.28 665.415 913.936 657.114 905.752 665.604C 900.864 670.675 900.512 678.98 901.376 685.6C 903.312 700.503 909.096 714.444 918.368 726.4C 921.888 730.939 926.024 737.454 932 738.862C 942.76 741.395 952.768 725.127 960.136 719.504C 962.128 717.983 969.048 712.51 971.088 716.266C 972.896 719.594 967.704 723.744 965.832 725.829C 959.24 733.147 951.744 739.458 945.168 746.739C 942.36 749.84 938.712 753.554 937.44 757.6C 935.2 764.745 937.76 772.69 935.504 780C 930.424 796.45 912.672 803.752 896.8 801.248C 887.168 799.733 884.96 794.106 889.536 785.6C 894.68 776.018 902.576 769.009 910.368 761.733C 913.232 759.056 915.36 756.554 916.648 752.8C 919.672 743.995 915.704 727.586 904 727.282C 892.104 726.973 884.392 744.076 872.8 746.385C 860.032 748.927 852.944 728.088 840.8 730.08C 831.144 731.664 825.064 742.07 816.664 746.162C 805.72 751.493 792.53 747.812 782.401 754.41C 773.371 760.293 766.7 769.31 757.597 775.129C 754.784 776.926 751.574 780.045 748 779.863C 740.05 779.46 731.977 767.568 728 761.6L 727.2 761.6C 727.2 767.178 726.193 773.913 728.275 779.2C 733.284 791.915 750.136 794.251 761.6 790.141C 774.149 785.641 781.527 775.122 792.8 768.773C 802.52 763.298 814.776 763.559 824.8 758.477C 830.344 755.664 836.408 748.963 842.392 747.586C 846.088 746.733 852.072 754.158 855.2 756.016C 861.392 759.695 870.664 760.247 877.6 758.655C 889.88 755.837 896.856 740.53 908.8 739.2C 909.448 742.034 911.744 745.043 911.312 748C 910.616 752.762 905.768 756.402 902.4 759.304C 895.056 765.637 888.008 772.111 881.264 779.067C 875.648 784.849 867.648 792.781 871.736 801.6C 878.368 815.904 895 810.216 903.28 820.08C 907.52 825.128 907.888 830.976 910.304 836.8C 915.592 849.56 921.904 861.752 928.992 873.6C 932.664 879.728 936.264 886.448 942.4 890.52C 953.544 897.904 976.248 891.944 988 888.568C 1014.26 881.032 1039.96 872.824 1064 859.552C 1077.08 852.32 1089.12 843.968 1096.25 830.4C 1104.18 815.304 1109.96 796.018 1103.92 779.2C 1094.72 753.614 1061.02 742.851 1036.8 748.4C 1005.43 755.587 979.704 778.55 949.6 788.8C 949.6 775.846 951 763.938 959.68 753.829C 968.712 743.298 984.808 734.793 988.96 720.8C 992.432 709.095 985.448 695.796 972 699.923C 958.84 703.963 945.888 716.446 936.8 726.4L 936 726.4C 923.84 710.358 910.472 691.649 915.2 671.2C 920.624 673.827 923.104 680.081 928.8 682.399C 938.992 686.548 955.432 683.134 950.424 668.8C 946.648 657.974 935.456 649.847 928.8 640.8C 935.368 640.545 940.736 644.126 946.4 646.884C 961.576 654.273 973.808 666.05 986.4 677.026C 995.488 684.948 1004.32 694.002 1016.8 687.784C 1053.29 669.6 1086.9 638.238 1113.9 608.135C 1125.75 594.914 1140.53 579.865 1145.9 562.4C 1147.58 556.942 1148.06 551.273 1148 545.6C 1147.5 504.116 1103.33 493.6 1070.4 493.6C 1060.02 493.6 1048.06 493.199 1038.4 497.518C 998.824 515.214 965.056 547.571 934.344 577.371L 913.528 598.171C 909.632 601.905 903.248 606.368 900.824 611.203C 897.312 618.217 904.016 628.254 901.768 635.999C 898.928 645.808 887.744 650.968 883.312 660.003C 878.912 668.969 882.416 681.478 881.136 691.2C 880.088 699.186 880.68 707.27 878.8 715.2C 878.232 717.574 877.296 722.004 874.92 723.263C 871.352 725.155 868.056 715.05 867.256 712.8C 862.376 699.113 859.032 684.751 844.8 677.831C 836.944 674.012 826.312 677.159 818.4 679.433C 794.7 686.243 785.283 706.86 776.05 728C 772.252 736.697 767.759 745.072 765.6 754.4z"></path><path d="M 1189.6 550.919C 1177.63 554.528 1170.84 569.433 1166.71 580C 1162.16 591.614 1157.02 603.65 1154.77 616C 1152.35 629.314 1151.1 645.277 1144.96 657.55C 1143.12 661.222 1139.38 660.162 1136 659.663C 1129.22 658.663 1121.85 657.23 1115.2 659.647C 1094.7 667.104 1084.67 689.209 1083.27 709.6C 1081.7 732.443 1088.65 757.758 1111.2 768.307C 1117.65 771.324 1124.4 767.542 1130.41 770.522C 1141.91 776.219 1147.14 789.966 1160.8 791.769C 1180.5 794.367 1187.67 778.233 1204 772.764C 1214.86 769.127 1227.06 774.945 1238.4 771.873C 1252.86 767.953 1256.31 754.349 1267.34 746.483C 1277.47 739.253 1292.46 740.05 1300.97 730.19C 1309.72 720.04 1297.1 715.609 1288.8 720.382C 1278.92 726.072 1265.75 728.208 1256.8 735.055C 1246.87 742.652 1243.78 755.147 1230.4 758.591C 1219.46 761.406 1207.32 752.3 1196.8 757.039C 1185.34 762.198 1176.62 781.87 1161.6 779.504C 1152.16 778.018 1146 766.526 1143.28 758.4C 1142.23 755.254 1143.04 749.982 1139.78 748.034C 1136.74 746.218 1132.93 748.838 1130.4 750.401C 1125.4 753.493 1118.19 758.434 1112 757.165C 1089.7 752.594 1093.1 718.911 1095.67 702.4C 1096.38 697.906 1097.12 693.054 1098.78 688.801C 1102.04 680.402 1114 668.19 1124 669.915C 1132.94 671.458 1144.9 681.954 1151.9 671.196C 1167.34 647.43 1167.74 615.569 1178.24 589.6C 1180.58 583.815 1185.26 565.662 1193.33 565.29C 1196.86 565.127 1196.06 572.307 1195.97 574.4C 1195.54 584.224 1191.4 593.679 1189.34 603.2C 1180.6 643.53 1160.83 681.371 1155.2 722.4C 1153.74 733.04 1152.72 746.645 1156.87 756.8C 1157.97 759.478 1161.5 767.133 1165.42 765.459C 1169.06 763.906 1168.05 756.759 1168.46 753.6C 1170.11 741.002 1167.98 728.547 1171.12 716C 1178.23 687.514 1188.25 659.894 1197.34 632C 1201.73 618.53 1208.09 604.64 1209.46 590.4C 1210.78 576.862 1213.14 543.82 1189.6 550.919z"></path><path d="M 520 708C 520.03 718.972 520.406 737.739 526.426 747.2C 538.066 765.498 574.23 766.322 593.6 762.829C 604.286 760.901 615.315 749.812 625.6 749.812C 633.36 749.812 639.33 758.111 646.4 760.264C 655.992 763.185 664.876 757.062 674.4 758.661C 683.658 760.215 689.601 769.057 699.2 770.252C 710.992 771.72 732.654 759.657 728.8 745.6C 719.822 747.948 708.77 757.523 699.2 755.565C 689.848 753.65 685.574 742.941 676 741.748C 666.475 740.562 658.121 748.206 648.803 746.085C 640.056 744.094 634.479 732.674 624.8 732.91C 614.027 733.171 604.33 744.658 594.4 748.308C 587.121 750.983 578.7 748.05 571.2 747.336C 562.564 746.514 553.213 748.623 544.8 745.881C 532.747 741.952 530.334 724.021 527.618 713.6C 525.581 705.786 522.862 699.19 513.6 700.084C 505.206 700.894 498.843 708.401 493.801 714.388C 482.802 727.449 472.155 749.51 456.8 757.6C 454.211 749.433 455.2 740.49 455.2 732C 446.944 735.929 439.658 742.72 432 747.756C 427.011 751.037 422.06 754.134 416.8 756.983C 413.897 758.556 411.208 759.638 408 760.396C 397.502 762.876 393.054 756.642 390.92 747.2C 387.52 732.153 393.942 721.15 398.049 707.2C 399.548 702.109 400.478 695.33 395.165 692.182C 379.978 683.189 365.099 700.862 355.772 710.171C 350.803 715.131 344.853 721.377 338.397 724.342C 331.124 727.681 321.905 728.184 315.551 733.35C 303.545 743.113 299.443 760.863 280.8 759.465C 277.782 759.238 274.822 758.654 272.001 757.545C 250.803 749.213 261.672 725.465 265.926 710.4C 268.107 702.672 271.134 691.129 278.412 686.629C 294.189 676.874 306.385 695.165 312.298 707.2C 315.081 712.862 318.303 719.735 325.6 719.842C 341.26 720.072 356.623 703.479 360.766 689.6C 362.883 682.507 361.851 674.8 365.122 668C 366.886 664.334 378.362 648.045 383.518 652.629C 385.501 654.393 384.8 658.449 384.8 660.8C 384.8 667.009 383.656 674.298 386.4 680C 394.067 677.729 401.719 670.162 410.397 672.806C 417.15 674.864 415.452 680.37 413.876 685.6C 410.506 696.78 407.173 707.915 404.121 719.2C 402.805 724.066 397.64 744.322 406.432 745.227C 413.082 745.912 414.17 730.822 415.846 726.4C 421.346 711.892 429.654 695.738 430.369 680C 430.623 674.389 431.13 667.265 426.598 663.054C 421.19 658.03 412.844 661.424 407.215 657.806C 400.972 653.794 402.007 644.619 395.956 640.179C 382.323 630.175 358.431 645.53 352.04 658.431C 345.55 671.533 356.462 698.898 335.2 704.33C 325.373 706.84 320.668 689.593 315.649 684.072C 301.564 668.58 272.852 668.703 261.122 687.212C 255.525 696.044 252.965 710.633 250.739 720.8C 248.718 730.038 246.914 742.042 250.035 751.2C 255.678 767.758 276.374 776.422 292.8 772.193C 300.949 770.094 308.447 766.015 314.024 759.661C 317.518 755.678 319.881 750.321 324.147 747.04C 330.212 742.377 337.376 741.446 344 738.19C 349.236 735.615 354.142 731.182 358.399 727.268C 366.062 720.224 372.855 712.025 380.872 705.396C 382.893 703.725 386.622 699.698 389.478 700.03C 394.655 700.631 388.084 712.883 387.16 715.2C 382.048 728.016 373.943 754.966 384.426 766.969C 399.382 784.091 422.126 769.509 438.4 763.596C 443.528 761.733 446.261 766.097 450.4 768.261C 455.808 771.089 462.562 771.154 468 768.445C 475.726 764.596 480.158 756.25 485.202 749.6C 495.844 735.57 505.782 718.766 520 708z"></path><path d="M 189.6 669.971C 171.07 673.246 153.648 685.003 138.4 695.344C 84.9256 731.609 48.4774 789.407 45.6315 854.4C 44.3088 884.608 45.1866 915.48 62.6037 941.264C 71.6903 954.712 80.0672 963.16 96.8 964.744C 101.983 965.232 106.823 965.408 112 964.544C 133.074 961.024 147.851 931.248 155.469 913.6C 178.784 859.576 189.622 800.488 197.6 742.4L 203.539 695.2C 204.33 689.185 206.906 678.483 203.634 672.971C 201.026 668.578 193.913 669.209 189.6 669.971z"></path><path d="M 427.2 735.2C 439.465 734.562 455.277 717.181 459.718 706.397C 463.063 698.274 461.442 692.038 468.8 685.6C 469.274 696.653 468.173 709.502 472 720C 489.296 716.501 487.927 678.065 474.264 670.858C 467.891 667.496 460.431 671.796 456.582 677.029C 450.809 684.874 451.026 696.218 446.636 704.8C 441.175 715.475 430.565 723.521 427.2 735.2z"></path><path d="M 1180 755.2C 1186.12 753.246 1189.21 748.216 1192.79 743.2C 1200.78 732 1207.63 719.362 1212.24 706.4C 1214.46 700.148 1214.34 693.858 1219.27 688.872C 1235.67 672.286 1249.22 696.19 1256.46 708.8C 1258.38 712.158 1260.03 716.21 1263.34 718.485C 1266.67 720.778 1270.87 719.331 1274.4 718.235C 1283.07 715.542 1295.18 709.086 1301.28 702.233C 1303.56 699.678 1304.54 694.819 1299.97 694.187C 1290.9 692.933 1281.02 706.631 1272.95 703.505C 1268.69 701.856 1266.35 694.791 1263.57 691.429C 1256.36 682.714 1245.56 671.237 1233.6 669.748C 1214.76 667.403 1207.73 686.613 1201.62 699.988C 1200.3 702.908 1197.64 704.908 1196.64 708.012C 1195.64 711.15 1195.99 714.462 1194.83 717.6L 1188.44 732C 1185.27 739.753 1180.74 746.638 1180 755.2z"></path><path d="M 706.4 682.012C 687.998 685.786 685.358 713.6 686.472 728.8C 687.138 737.892 691.902 747.991 702.4 746.22C 718.777 743.458 732.69 717.722 731.968 702.4C 731.346 689.171 719.514 679.322 706.4 682.012z"></path><path d="M 1119.2 682.774C 1102.8 685.929 1102.66 715.268 1104.34 728C 1105.34 735.549 1107.71 744.522 1117.6 742.934C 1133.71 740.347 1145.9 720.185 1145.58 704.8C 1145.3 690.62 1133.24 680.074 1119.2 682.774z"></path><path d="M 289.651 694.541C 282.959 697.316 284.269 714.392 293.525 710.717C 301.126 707.698 293.093 693.114 289.651 694.541z"></path><path d="M 604.071 697.475C 593.309 701.809 584.895 715.805 581.767 726.4C 580.99 729.032 578.643 743.062 584.047 741.799C 587.354 741.026 589.944 737 591.861 734.471C 597.041 727.641 600.729 720.308 607.201 714.432C 610.142 711.762 615.878 710.129 617.531 706.366C 620.184 700.322 608.514 695.686 604.071 697.475z"></path><path d="M 839.2 708C 838.064 700.958 829.256 694.878 822.408 697.894C 813.928 701.63 803.872 712.285 802.568 721.6C 802.08 725.097 802.528 738.577 808.688 736.999C 811.808 736.2 813.344 728.918 815.024 726.4C 820.64 717.974 828.192 708.265 839.2 708z"></path><path d="M 1224 696.8C 1226.54 702.686 1230.71 710.433 1237.6 711.2C 1237.6 700.886 1234.63 696.801 1224 696.8z"></path><path d="M 278.401 721.394C 263.754 727.013 270.965 755.582 287.2 749.216C 292.213 747.25 299.404 740.4 298.714 734.4C 297.816 726.593 285.892 718.52 278.401 721.394z"></path><path d="M 1223.2 721.223C 1207.3 724.893 1209.26 753.082 1226.4 749.053C 1245.23 744.627 1243.75 716.482 1223.2 721.223z"></path><path d="M 1230.4 720.8L 1231.2 721.6L 1230.4 720.8z"></path><path d="M 901.6 788C 913.776 787.992 923.736 779.85 924 767.2C 915.48 767.772 902.864 779.609 901.6 788z"></path><path d="M 876 912C 865.128 912 853.664 911.464 843.2 914.936C 782.68 935.016 787.2 1004.47 787.2 1056C 777.83 1049.4 771.81 1040.94 759.212 1046.92C 748.494 1052 744.301 1068.5 739.855 1078.4C 731.614 1096.76 721.62 1114.3 712.09 1132C 705.849 1143.59 698.542 1155.22 698.403 1168.8C 698.234 1185.26 709.006 1197.92 717.426 1211.2C 728.83 1229.18 738.529 1248.63 747.366 1268C 768.518 1314.37 770.72 1364.05 767.271 1414.4C 766.375 1427.49 767.931 1440.54 766.058 1453.6C 761.786 1483.35 743.549 1510.18 719.064 1527.35C 699.734 1540.9 675.298 1545.6 652 1545.6C 643.141 1545.6 633.173 1545.59 624.8 1542.23C 607.182 1535.17 586.87 1516.3 580.183 1498.4C 577.24 1490.52 577.6 1482.66 577.6 1474.4C 577.6 1460.64 577.206 1445.1 582.131 1432C 583.955 1427.14 592.589 1410.7 599.653 1417.86C 602.743 1420.98 601.317 1426.46 601.739 1430.4C 602.507 1437.58 606.881 1448.18 613.604 1451.69C 636.167 1463.44 668.627 1453.14 677.29 1428.8C 679.312 1423.12 678.4 1416.34 678.4 1410.4C 678.398 1380.11 660.186 1349.62 627.2 1348.81C 588.618 1347.86 551.978 1376.58 539.738 1412.8C 534.337 1428.78 535.03 1444.34 533.464 1460.8C 531.955 1476.66 530.286 1496.65 535.11 1512C 544.73 1542.61 571.568 1567.22 597.465 1584.54C 603.589 1588.63 609.509 1593.96 616.001 1597.39C 623.326 1601.26 638.094 1598.4 646.4 1598.4C 664.202 1598.4 684.243 1600.78 701.6 1596.06C 711.899 1593.26 721.238 1585.78 731.2 1581.81C 735.856 1579.95 740.975 1579.62 745.6 1577.64C 754.284 1573.93 762.626 1567.73 770.4 1562.43C 820.984 1527.95 834.512 1474.45 843.8 1417.6C 846.4 1401.71 850.832 1385.64 851.928 1369.6C 855.432 1318.44 849.28 1265.93 838 1216C 834.12 1198.81 830.104 1181.61 824.88 1164.8C 821.536 1154.03 816.208 1143.8 813.6 1132.8C 821.088 1138.54 827.568 1145.69 836 1150.14C 853.296 1159.27 874.224 1158 892 1151.1C 900.352 1147.86 907.416 1140.36 916 1138.09C 927.816 1134.96 941.144 1140.76 952.8 1136.71C 960.8 1133.94 966.76 1126.14 975.2 1124.12C 981.736 1122.55 987.472 1128.95 992.8 1131.82C 1000.62 1136.02 1009.53 1136.43 1017.6 1132.59C 1035.3 1124.18 1041.3 1107.69 1050.77 1092.03C 1053.18 1088.04 1059.09 1077.02 1064.71 1077.63C 1072.66 1078.5 1064.62 1097.14 1063.54 1100.8C 1061.85 1106.53 1058.09 1111.72 1057.06 1117.6C 1054.63 1131.55 1063.92 1146.58 1077.6 1150.27C 1086.02 1152.55 1093.2 1148.5 1100.8 1145.43C 1121.07 1137.26 1150.23 1116.14 1158.46 1095.2C 1163.95 1081.22 1155.5 1070.5 1140.8 1074.9C 1129.18 1078.38 1118.6 1090.72 1111.46 1099.94C 1108.46 1103.83 1105.35 1106.92 1104.8 1112C 1114.9 1109.11 1122.16 1100.58 1130.33 1094.43C 1132.83 1092.55 1136.71 1087.94 1140.33 1088.97C 1142.86 1089.69 1140.81 1093.01 1139.98 1094.26C 1137.29 1098.38 1133.44 1101.93 1130.18 1105.59C 1120.32 1116.63 1108.28 1125.86 1095.2 1132.57C 1089.32 1135.58 1082.15 1138.47 1076 1134.5C 1060.36 1124.39 1072.45 1099.42 1075.36 1085.6C 1077.38 1075.97 1077.92 1066.61 1065.6 1065.67C 1054.37 1064.82 1045.96 1073.65 1040.46 1082.4C 1031.92 1096 1023.37 1114.21 1008.8 1122.52C 1003.62 1125.47 999.968 1121.14 996.016 1118.18C 988.944 1112.86 982.672 1105.42 972.8 1107.51C 962.696 1109.65 957.184 1119.33 947.968 1122.98C 937.376 1127.18 925.328 1120.44 914.4 1123.2C 904.392 1125.74 896.712 1133.21 887.2 1136.98C 864.712 1145.89 836.432 1141.56 819.208 1124C 795.754 1100.08 796.212 1065.38 797.569 1034.4C 798.295 1017.82 798.428 1001.94 802.12 985.6C 805.56 970.376 809.36 954.088 820.904 942.632C 831.488 932.12 844.824 927.496 859.2 925C 865.536 923.896 879.176 924.744 883.312 919.016C 887.384 913.392 884.248 902.688 882.416 896.8C 876.92 879.12 858.4 855.264 839.2 851.448C 826.384 848.904 811.08 847.976 798.4 851.92C 774.091 859.496 758.906 882.112 747.282 903.2C 719.037 954.448 713.882 1012.78 690.155 1065.6C 679.875 1088.49 669.159 1126.45 643.2 1136.42C 638.017 1138.42 631.854 1137.6 626.4 1137.6C 620.902 1137.6 615.57 1137.6 610.4 1135.42C 592.875 1128.05 584.102 1110.3 577.649 1093.6C 565.455 1062.04 567.705 1024.71 572.997 992C 575.902 974.04 579.114 957.92 592.072 944C 603.277 931.968 618.634 927.168 634.4 924.6C 639.96 923.696 653.992 924.208 656.793 918.288C 659.819 911.88 657.075 902.064 654.55 896C 647.698 879.536 634.584 858.416 616.8 851.976C 610.558 849.712 602.571 849.6 596 849.6C 564.73 849.6 545.244 863.52 527.734 888.832C 492.173 940.24 483.438 1007.81 462.592 1065.6C 454.718 1087.43 443.95 1110.67 426.399 1126.46C 419.78 1132.41 410.338 1140.58 400.8 1138.4C 407.032 1127.62 417.821 1119.59 425.618 1109.94C 434.732 1098.66 441.622 1084.63 446.994 1071.2C 474.639 1002.08 481.28 918.04 534.469 861.608C 541.626 854.016 549.914 847.512 559.2 842.792C 567.134 838.76 574.361 836.176 583.2 834.752C 633.022 826.728 667.395 872.352 674.852 916.8C 675.668 921.664 679.712 941.504 673.494 943.376C 669.89 944.464 664.604 941.712 660.8 941.608C 639.805 941.056 621.499 934.456 604.1 949.968C 594.318 958.68 590.058 971.864 586.739 984C 578.166 1015.35 580.386 1050.95 587.292 1082.4C 590.856 1098.63 597.683 1118.78 615.2 1124.66C 654.264 1137.8 670.162 1081.7 680.915 1055.2C 705.85 993.768 711.239 925.776 753.232 871.664C 774.305 844.504 812.128 822.784 847.2 837.872C 874.352 849.552 897.688 884.048 902.624 912.8C 903.936 920.432 909.84 934.648 903.656 941.328C 899.688 945.608 888.464 941.848 883.2 941C 869.656 938.808 851.224 936.512 838.864 944.096C 824.896 952.664 818.976 966.496 814.64 981.6C 810.416 996.296 810.4 1012.02 810.4 1027.2C 810.4 1056.33 808.656 1090.92 829.272 1114.37C 856.32 1145.13 902.584 1121.58 923.736 1096C 933.84 1083.78 936.256 1069.98 952.8 1063.58C 977.584 1053.98 981.984 1083.7 990.4 1098.4C 993.296 1103.46 997.8 1112.05 1004.8 1111.63C 1012.38 1111.18 1017.85 1101.72 1021.83 1096.34C 1029.27 1086.27 1037.25 1074.49 1040.98 1062.4C 1043.98 1052.7 1043.04 1041.7 1050.61 1033.84L 1054.4 1030.75C 1067.78 1021.51 1062.18 1046.19 1069.67 1050.26C 1076.33 1053.86 1087.85 1042.81 1093.12 1047.71C 1097.44 1051.74 1092.06 1064.01 1091.3 1068.8C 1089.02 1083.44 1081.9 1097.06 1080.87 1112C 1080.48 1117.66 1082.39 1122.52 1083.2 1128L 1084 1128C 1085.54 1123.14 1088.82 1119.12 1090.68 1114.4C 1096.5 1099.67 1101.66 1084.97 1105.4 1069.6C 1107.35 1061.58 1110.29 1053.14 1108.26 1044.8C 1105.66 1034.22 1092.68 1036.19 1085.75 1030.68C 1078.81 1025.15 1077.19 1016.09 1067.2 1013.91C 1062.36 1012.86 1057.26 1013.98 1052.8 1015.9C 1026.74 1027.09 1033.17 1051.46 1024.1 1072.8C 1019.54 1083.54 1010.05 1094.63 1007.2 1105.6L 1006.4 1105.6C 1004.86 1096.68 1000.73 1086.98 997.736 1078.4C 995.856 1073.02 993.92 1065.42 989.984 1061.22C 976.736 1047.02 954.096 1048.06 939.2 1058.2C 928.008 1065.82 924.096 1077.34 915.584 1087.06C 895.536 1109.98 855.04 1130.95 835.32 1096.8C 819.8 1069.9 819.904 1032.93 825.112 1003.2C 826.912 992.912 828.536 982.4 833.12 972.8C 841.264 955.744 856.496 953.592 873.6 953.6C 882.136 953.6 891.768 954.84 896.8 962.4C 889.808 965.096 879.48 965.536 873.84 970.712C 853.384 989.504 890.232 1010.8 904 1016.96C 933.312 1030.1 966.416 1030.68 996 1017.92C 1011.47 1011.25 1025.98 990.976 1019.55 973.6C 1015.94 963.832 1006.88 956.632 998.264 951.448C 974.384 937.088 947.312 941.976 923.2 952C 919.416 922.064 917.904 894.488 901 868.032C 889.792 850.48 872.56 832.096 852.8 824.168C 820.584 811.24 781.52 822.624 757.671 846.472C 730.935 873.208 717.003 910.824 705.043 945.6L 676.737 1029.6C 668.946 1052.42 662.157 1078.62 647.867 1098.39C 641.008 1107.88 629.378 1115.7 617.603 1109.38C 608.138 1104.3 601.777 1087.45 599.391 1077.6C 596.038 1063.75 597.6 1048.54 597.6 1034.4C 597.6 1017.58 595.636 999.4 600.892 983.2C 603.86 974.048 610.265 961.624 619.2 956.928C 631.329 950.56 649.982 953.84 662.4 957.616C 670.613 960.12 682.774 962.936 688.918 954.968C 697.806 943.44 692.066 919.848 688.566 907.2C 677.616 867.632 654.472 829.304 611.2 820.648C 572.574 812.92 539.014 835.568 516.033 864.464C 472.034 919.776 464.282 992.752 439.339 1056.8C 433.614 1071.5 427.29 1087.15 417.969 1100C 410.875 1109.78 400.384 1117.57 394.373 1128.01C 390.751 1134.3 391.274 1146.06 395.722 1151.93C 401.936 1160.13 415.624 1153.57 422.397 1149.2C 443.122 1135.84 455.854 1115.07 466.942 1093.6C 486.811 1055.12 494.214 1011.38 506.434 970.4C 512.42 950.328 522.732 930.912 531.556 912C 545.386 882.368 574.036 855.736 608.8 865.08C 619.577 867.984 631.724 884.048 637.89 892.8C 640.161 896.024 644.25 900.408 642.594 904.728C 639.356 913.16 624.623 912.28 617.6 914.088C 604.388 917.488 590.048 926.448 581.368 936.936C 565.908 955.608 562.094 978.976 559.864 1002.4C 556.908 1033.46 557.062 1064.05 565.365 1094.4C 570.622 1113.62 580.279 1134.01 598.4 1144.42C 603.058 1147.1 608.31 1150.43 613.6 1151.58C 647.451 1158.98 672.563 1138.19 686.638 1108.8C 699.279 1082.41 711.876 1055.46 719.968 1027.2C 730.652 989.888 738.627 950.576 757.058 916C 766.787 897.752 781.242 872.192 802.4 865.64C 809.112 863.568 816.368 864.472 823.2 864.768C 832.512 865.176 839.792 866.888 847.2 873.064C 859.88 883.624 868.2 897.76 876 912z"></path><path d="M 969.6 1074.4C 955.096 1073.26 946.504 1076.12 938.984 1089.6C 937.168 1092.85 933.688 1110.74 940.072 1111.06C 942.888 1111.21 944.616 1107.52 945.904 1105.59C 949.608 1100.02 953.432 1094.64 957.832 1089.6C 961.984 1084.84 969.096 1081.12 969.6 1074.4z"></path></g></svg>