<?xml version="1.0" standalone="no"?>
<!DOCTYPE svg PUBLIC "-//W3C//DTD SVG 20010904//EN"
 "http://www.w3.org/TR/2001/REC-SVG-20010904/DTD/svg10.dtd">
<svg version="1.0" xmlns="http://www.w3.org/2000/svg"
 width="480.000000pt" height="480.000000pt" viewBox="0 0 480.000000 480.000000"
 preserveAspectRatio="xMidYMid meet">
<metadata>
Created by potrace 1.14, written by Peter Selinger 2001-2017
</metadata>
<g transform="translate(0.000000,480.000000) scale(0.100000,-0.100000)"
fill="#000000" stroke="none">
<path d="M2032 4304 c-12 -8 -22 -26 -22 -40 0 -21 -12 -30 -82 -62 -46 -22
-251 -119 -457 -217 -315 -150 -377 -176 -392 -167 -31 20 -67 14 -85 -13 -14
-21 -14 -30 -4 -55 12 -28 5 -41 -226 -417 -201 -326 -243 -389 -264 -391 -14
-2 -31 -9 -37 -14 -20 -16 -16 -65 7 -81 20 -14 21 -28 27 -489 l6 -474 -27
-27 c-20 -20 -26 -33 -21 -50 9 -28 33 -47 60 -47 16 0 75 -86 282 -407 159
-249 258 -412 252 -418 -19 -19 -10 -64 17 -82 25 -16 28 -16 57 0 l30 18 316
-122 c174 -66 318 -125 319 -130 10 -26 36 -39 66 -34 43 9 126 -27 126 -54 0
-21 34 -51 58 -51 7 0 24 11 37 24 l25 25 386 2 c382 1 386 1 400 -20 21 -30
69 -28 90 4 9 14 14 32 10 40 -3 9 4 21 19 31 14 9 23 20 20 24 -8 13 114 120
130 114 8 -4 15 -8 15 -10 0 -2 -32 -25 -70 -50 -39 -26 -68 -49 -66 -51 2 -3
189 119 415 270 226 151 414 271 417 266 9 -15 61 -10 78 7 20 20 20 53 1 75
-15 15 0 63 163 545 146 434 182 530 198 533 68 12 72 96 6 119 -28 10 -35 28
-204 534 l-175 523 21 28 c19 26 19 30 6 54 -23 40 -44 50 -81 36 -32 -12 -37
-9 -363 204 -182 119 -379 247 -438 286 -94 60 -108 73 -108 97 0 30 -27 60
-55 60 -10 0 -29 -10 -42 -21 l-22 -22 -363 27 c-227 17 -364 31 -367 38 -6
17 -40 48 -54 48 -7 0 -23 -7 -35 -16z m378 -78 c96 -8 226 -18 288 -22 62 -3
111 -9 108 -11 -2 -2 -90 -13 -195 -23 l-190 -18 -133 44 c-155 50 -150 52
122 30z m-155 -35 l120 -39 -55 -6 c-119 -13 -302 -27 -306 -23 -3 3 3 21 12
41 13 25 24 36 40 36 12 0 27 7 34 15 17 20 18 20 155 -24z m-225 19 c0 -5
-59 -125 -130 -267 -72 -142 -129 -247 -126 -233 2 14 10 96 17 182 11 142 14
157 33 168 17 8 30 7 58 -5 55 -22 59 -17 8 9 l-45 24 35 6 c80 13 82 14 27
13 -31 -1 -57 1 -57 4 0 4 10 14 23 24 21 16 21 16 -6 0 -15 -9 -33 -13 -39
-9 -11 7 29 31 100 61 27 11 32 11 27 1 -3 -7 -1 -6 7 3 21 25 68 39 68 19z
m840 -62 c0 -15 -72 -108 -83 -108 -7 0 -86 24 -177 53 l-165 53 160 13 c88 8
178 17 200 21 39 7 65 -6 65 -32z m530 -281 c201 -131 370 -243 375 -248 13
-13 -27 5 -355 160 -259 121 -275 131 -278 158 -5 39 -28 62 -60 58 -24 -3
-33 5 -75 69 -26 40 -47 76 -47 80 0 10 16 0 440 -277z m-826 222 c88 -28 171
-55 184 -60 22 -9 22 -11 -38 -97 l-61 -87 -80 -18 -80 -18 -257 107 c-141 59
-261 111 -266 116 -6 5 -4 20 6 40 l15 33 164 16 c244 24 234 25 413 -32z
m418 -28 c56 -88 53 -109 -13 -86 -22 8 -71 24 -109 35 l-70 21 40 53 c34 45
45 53 72 52 28 -1 37 -9 80 -75z m-1232 31 c0 -8 -200 -98 -240 -108 -8 -3 39
23 105 56 123 62 135 66 135 52z m-15 -41 c-6 -6 -93 -84 -194 -174 l-185
-164 -110 24 c-61 13 -121 25 -133 28 -48 11 -18 32 125 90 81 32 224 92 317
131 170 73 198 83 180 65z m45 -8 c0 -10 -7 -90 -15 -178 -8 -88 -15 -166 -15
-172 0 -7 -8 -13 -17 -13 -9 0 -25 -8 -35 -17 -18 -16 -27 -15 -156 11 -75 16
-143 31 -150 35 -9 5 48 62 180 179 106 95 196 172 201 172 4 0 7 -8 7 -17z
m428 -129 c139 -59 251 -109 249 -111 -5 -5 -636 -153 -653 -153 -35 0 -24 38
57 201 46 93 86 169 89 169 3 0 119 -48 258 -106z m695 66 c54 -18 96 -37 94
-43 -3 -9 -318 -89 -325 -82 -7 6 113 163 122 160 6 -2 55 -18 109 -35z
m-1423 -10 c-8 -5 -19 -10 -25 -10 -5 0 -3 5 5 10 8 5 20 10 25 10 6 0 3 -5
-5 -10z m1545 -84 l26 -25 -12 -80 -11 -81 -32 5 c-17 3 -94 14 -171 25 -183
26 -192 28 -200 47 -12 33 28 52 195 92 91 22 168 40 172 40 4 1 19 -10 33
-23z m205 -38 c52 -25 201 -94 329 -154 129 -60 228 -110 220 -112 -7 -1 -74
8 -147 21 -111 20 -136 28 -149 46 -10 15 -22 21 -36 17 -15 -4 -37 14 -94 75
-41 43 -80 79 -86 79 -7 0 26 -38 73 -85 46 -46 82 -86 79 -89 -2 -3 -24 -2
-47 1 -39 5 -51 15 -147 120 -58 63 -105 119 -105 124 0 6 3 8 8 6 4 -3 50
-25 102 -49z m34 -145 c21 -24 35 -43 30 -43 -5 1 -61 9 -124 19 l-115 17 2
64 c2 83 9 108 31 112 16 4 35 -14 176 -169z m-634 112 c0 -11 -70 -33 -92
-29 l-23 5 23 -12 c12 -7 22 -15 22 -19 0 -3 -149 -48 -330 -100 -182 -51
-328 -95 -326 -97 3 -3 149 36 326 87 226 64 325 89 333 81 7 -7 -19 -80 -86
-243 -101 -245 -118 -291 -94 -248 8 14 56 127 107 253 71 173 97 227 110 227
15 0 358 -401 369 -431 2 -6 -5 -71 -14 -145 l-18 -134 -107 0 c-59 0 -127 -2
-151 -6 -43 -5 -48 -2 -179 91 -74 53 -134 101 -132 107 1 5 -2 7 -6 4 -10 -6
-37 13 -326 217 -126 89 -165 122 -155 129 10 7 8 8 -7 3 -26 -7 -74 29 -74
56 0 10 2 19 5 19 7 0 667 155 745 175 60 15 80 18 80 10z m-1405 -91 c61 -13
121 -27 135 -30 14 -2 91 -18 172 -35 190 -41 194 -51 58 -154 -14 -11 -44
-37 -66 -57 -134 -125 -670 -575 -675 -566 -4 5 -9 -1 -13 -14 -9 -28 -80 -91
-99 -86 -11 2 3 58 60 238 69 217 78 238 116 280 39 42 40 43 5 11 l-38 -34
24 74 c12 41 40 129 61 196 21 68 40 121 42 119 3 -2 -3 -57 -13 -122 -13 -92
-21 -122 -35 -132 -21 -14 -25 -52 -9 -68 7 -7 -7 -75 -45 -218 -31 -113 -55
-211 -53 -218 2 -6 31 87 64 207 32 120 64 220 69 222 6 2 41 -47 79 -107 38
-61 71 -109 73 -106 3 3 -24 51 -60 108 -49 76 -65 109 -60 126 3 12 7 22 10
22 15 0 508 92 512 95 9 10 -32 4 -270 -39 -134 -25 -245 -43 -246 -42 -2 2
69 67 157 146 88 78 158 145 156 148 -3 2 -69 -53 -148 -123 -187 -168 -177
-160 -187 -149 -5 5 -1 67 10 144 10 74 19 141 19 148 0 6 6 12 14 12 7 0 19
7 26 15 16 19 25 19 155 -11z m1627 -10 c95 -14 174 -27 174 -28 3 -3 -49
-371 -52 -375 -2 -2 -12 7 -23 20 -10 13 -87 107 -170 208 -83 101 -151 187
-151 192 0 14 35 11 222 -17z m-1953 -329 c-55 -171 -120 -373 -144 -450 -42
-131 -47 -141 -75 -152 -28 -11 -34 -8 -85 33 -55 45 -58 51 -58 124 0 14 454
762 459 757 2 -1 -42 -142 -97 -312z m2301 277 l115 -17 47 -51 48 -51 -99
-244 c-55 -134 -106 -245 -113 -247 -11 -2 -143 146 -196 219 -10 15 -8 51 13
205 14 102 25 190 25 195 0 12 25 11 160 -9z m210 -42 c11 -11 20 -24 20 -29
0 -5 9 -7 19 -4 16 4 36 -20 106 -127 47 -73 84 -134 82 -137 -9 -8 -217 229
-211 239 4 6 3 8 -3 5 -5 -3 -27 12 -48 33 l-39 40 27 0 c15 0 36 -9 47 -20z
m267 -37 c131 -23 153 -29 153 -44 0 -10 14 -28 30 -41 l30 -22 0 -203 c0
-244 1 -243 -108 -120 -73 82 -305 434 -296 449 8 12 24 10 191 -19z m-1822
-52 c133 -92 491 -345 495 -350 3 -3 13 -10 22 -16 24 -14 438 -307 459 -325
13 -10 16 -23 12 -43 -5 -25 -15 -30 -152 -73 -80 -26 -149 -48 -152 -50 -4
-2 -53 53 -110 123 -131 160 -133 163 -123 173 5 5 74 13 154 18 l145 10 -145
-1 c-80 0 -151 2 -157 6 -8 5 -3 28 18 79 16 39 27 73 25 75 -2 2 -17 -29 -34
-69 -17 -40 -36 -74 -42 -76 -17 -6 -490 469 -490 491 0 10 10 22 23 28 21 9
20 9 -4 4 -35 -6 -59 19 -32 33 20 11 18 12 88 -37z m-131 30 c3 -5 -1 -11 -9
-15 -8 -3 -15 -12 -15 -21 0 -9 -9 -15 -22 -16 -21 -1 -21 -2 -3 -6 46 -12 46
-21 1 -111 -23 -48 -98 -205 -166 -349 -68 -145 -129 -263 -136 -263 -19 0
-218 322 -208 337 5 6 107 95 226 197 173 147 221 184 240 180 19 -4 20 -3 4
4 -16 7 -15 11 18 40 37 32 60 40 70 23z m1881 -233 c99 -110 179 -204 177
-210 -1 -5 2 -7 7 -4 11 7 67 -62 57 -71 -3 -4 -13 2 -22 13 -13 15 -13 13 1
-10 9 -15 13 -32 8 -36 -4 -4 -73 -22 -153 -40 -80 -18 -199 -45 -265 -60 -66
-16 -128 -30 -139 -32 -15 -2 -23 8 -37 49 -26 77 -17 80 131 43 67 -17 124
-29 127 -27 2 3 -54 19 -125 36 -105 27 -130 36 -137 54 -8 18 8 68 85 259 52
131 97 237 100 237 3 0 86 -90 185 -201z m-1596 -92 c151 -151 239 -246 232
-250 -17 -11 -565 -156 -569 -151 -3 2 10 145 27 317 30 287 37 327 61 328 3
0 115 -110 249 -244z m2070 -266 c94 -277 169 -505 167 -507 -1 -2 -67 102
-144 231 -129 212 -142 238 -143 282 0 27 -7 87 -14 134 -14 83 -14 84 -11 23
2 -60 -4 -77 -20 -51 -7 11 -15 402 -8 396 2 -2 80 -231 173 -508z m-2398 141
c-17 -156 -32 -285 -33 -287 -11 -10 -234 -62 -241 -55 -4 4 61 155 145 335
84 179 154 318 156 309 1 -10 -11 -146 -27 -302z m1980 187 c11 -21 11 -22 -4
-9 -10 7 -17 17 -17 22 0 15 9 10 21 -13z m-567 -155 c42 -51 76 -99 76 -106
0 -11 -26 -16 -106 -21 -58 -4 -107 -6 -109 -4 -3 4 25 218 31 237 6 18 4 19
108 -106z m-1846 -205 c76 -121 98 -163 94 -183 -3 -20 -31 -41 -128 -99
l-123 -75 -143 55 c-78 30 -145 58 -148 62 -3 4 -11 7 -19 7 -8 0 -18 13 -22
30 -7 25 -4 33 24 56 18 15 33 26 35 24 2 -2 -2 -22 -8 -45 -6 -23 -9 -44 -7
-46 3 -3 11 21 19 53 14 58 15 59 167 191 85 73 155 131 157 130 1 -2 47 -74
102 -160z m1925 59 c3 -7 -16 -47 -42 -89 -44 -73 -48 -77 -94 -86 -45 -9 -50
-8 -76 18 -27 28 -28 30 -18 94 l9 65 72 4 c39 1 87 4 107 5 23 1 39 -3 42
-11z m-243 -21 c0 -13 -3 -43 -6 -68 -5 -37 -11 -46 -35 -55 -26 -10 -36 -5
-130 61 l-102 71 64 6 c35 3 97 6 137 7 70 2 72 1 72 -22z m927 -8 c17 -16 23
-32 23 -65 0 -53 6 -52 -170 -9 -116 29 -131 35 -105 42 64 16 210 52 219 53
6 1 20 -9 33 -21z m-632 -39 c9 -28 15 -53 11 -56 -6 -7 -127 -35 -131 -31 -5
6 85 138 94 138 5 0 17 -23 26 -51z m-973 29 c5 -14 -107 -398 -120 -409 -7
-7 -425 -140 -426 -136 -1 1 -17 20 -38 42 l-36 40 16 159 17 160 285 77 c332
90 297 82 302 67z m62 -35 c11 -16 62 -78 113 -140 51 -62 89 -114 85 -116
-21 -13 -344 -108 -349 -104 -5 5 16 79 83 305 14 45 30 82 36 82 5 0 20 -12
32 -27z m1639 -34 c2 -26 -3 -36 -23 -46 -14 -7 -20 -13 -14 -13 18 0 26 -47
14 -73 -10 -20 -9 -19 9 3 11 14 22 22 25 19 4 -3 17 -167 30 -365 l24 -359
-51 -62 c-28 -35 -54 -63 -58 -63 -4 0 -28 9 -53 20 -39 16 -46 23 -42 42 3
13 17 165 31 338 17 210 31 324 40 343 9 16 10 25 3 21 -8 -5 -9 13 -3 67 7
68 9 94 13 142 1 12 6 15 15 11 9 -6 9 -4 -1 8 -10 13 -10 17 0 21 20 7 40
-17 41 -54z m-270 0 c67 -16 138 -34 157 -39 l36 -10 -8 -92 c-5 -51 -13 -101
-18 -110 -6 -10 -7 -18 -2 -18 7 0 -45 -630 -53 -639 -2 -1 -56 19 -120 45
-176 74 -176 53 3 330 169 261 165 254 159 254 -3 0 -76 -108 -162 -240 -87
-132 -162 -240 -167 -240 -5 0 -11 7 -15 16 -3 9 -8 11 -12 6 -3 -6 -109 111
-236 260 -126 148 -240 280 -252 293 -19 22 -20 28 -10 57 6 18 12 34 12 35 0
0 18 5 40 9 l39 7 -17 -26 c-9 -15 -24 -38 -33 -52 -9 -14 -14 -25 -12 -25 3
0 21 24 41 54 35 53 38 54 112 72 46 11 78 14 84 8 4 -5 55 -152 112 -327 57
-176 105 -315 106 -310 2 4 -44 152 -101 328 -58 176 -104 321 -102 322 5 5
252 61 274 62 13 1 78 -13 145 -30z m-3098 -81 c46 -36 53 -47 49 -69 -3 -17
3 -35 17 -53 22 -27 22 -28 5 -99 -9 -40 -23 -103 -30 -142 -22 -110 -118
-540 -122 -544 -2 -2 -4 209 -3 470 l0 474 61 -163 c33 -89 63 -161 65 -158 3
3 -20 72 -51 153 -54 143 -63 173 -50 173 3 0 29 -19 59 -42z m1060 -45 c-11
-93 -25 -228 -25 -243 0 -8 -47 32 -105 90 -58 58 -105 107 -105 110 1 20 30
35 121 59 57 16 108 29 112 30 4 0 5 -20 2 -46z m2450 -83 c32 -52 58 -103 57
-112 0 -10 9 -25 21 -33 12 -8 21 -19 21 -23 -1 -4 12 -26 28 -49 24 -36 27
-46 17 -64 -6 -12 -8 -35 -5 -51 5 -27 -4 -43 -97 -153 -56 -67 -103 -122
-105 -120 -1 1 -11 136 -22 301 -11 164 -22 323 -25 352 -3 28 -1 52 3 52 5 0
32 -34 61 -75 28 -41 54 -75 57 -75 2 0 -18 34 -46 75 -27 41 -50 82 -50 92 0
22 5 15 85 -117z m-1213 20 c-2 -8 -26 -87 -54 -174 -40 -127 -53 -157 -62
-145 -38 51 -219 269 -223 269 -8 0 10 -24 115 -153 60 -74 102 -133 99 -142
-4 -8 -132 -54 -304 -110 -164 -53 -324 -105 -356 -115 -47 -15 -59 -16 -63
-6 -3 8 21 103 54 212 l58 198 185 58 c101 32 258 82 348 111 l165 53 20 -20
c12 -12 19 -28 18 -36z m-1527 10 c5 -8 -13 -209 -20 -218 -1 -1 -53 16 -114
39 -73 27 -109 45 -102 52 11 11 213 134 223 136 4 1 10 -3 13 -9z m1624 -9
c9 -16 -5 -45 -79 -165 -50 -80 -90 -149 -90 -153 0 -9 76 108 140 215 23 40
47 71 51 70 11 -4 479 -551 475 -555 -1 -2 -148 48 -326 110 -275 97 -325 117
-336 139 -11 22 -7 42 38 186 34 108 57 163 67 165 34 10 51 6 60 -12z m-1468
-106 c61 -64 104 -116 102 -125 -3 -8 -20 -25 -40 -38 l-36 -23 -95 37 -94 36
5 37 c3 20 9 65 12 101 8 81 12 92 27 88 7 -2 61 -52 119 -113z m-591 36 l152
-58 -104 -63 c-164 -100 -166 -101 -170 -93 -3 4 -13 37 -23 73 -10 36 -26 90
-36 120 -16 50 -16 55 -1 67 10 7 20 13 24 13 4 0 75 -26 158 -59z m-190 -41
c12 -39 18 -75 14 -82 -4 -6 -3 -9 2 -5 5 3 17 -19 25 -49 l16 -54 -33 -19
c-18 -11 -34 -17 -37 -15 -3 3 2 30 10 61 20 77 10 77 -12 1 l-17 -63 -25 55
-25 55 17 85 c10 47 20 88 22 93 11 20 24 1 43 -63z m530 -90 c30 -12 59 -25
64 -30 9 -9 -41 -479 -56 -518 -4 -13 -14 -22 -21 -20 -8 2 -99 68 -204 148
l-191 145 -22 83 c-13 45 -20 86 -16 90 4 4 67 43 139 88 l132 80 60 -22 c33
-12 85 -32 115 -44z m813 -171 c-31 -107 -61 -197 -67 -201 -10 -7 -290 261
-282 269 5 5 400 131 404 128 1 -1 -24 -89 -55 -196z m-383 78 c0 -5 -13 5
-30 21 -16 17 -30 34 -30 38 0 4 14 -5 30 -21 17 -16 30 -33 30 -38z m-240 20
c78 -31 85 -36 91 -66 4 -18 12 -38 18 -44 7 -7 -17 -64 -87 -199 -86 -167
-100 -189 -127 -197 -60 -17 -61 -7 -31 241 14 123 27 240 29 260 1 21 7 38
12 38 6 0 48 -15 95 -33z m-783 -65 c-5 -6 -7 -26 -3 -43 5 -24 -9 -71 -60
-206 -36 -96 -64 -176 -62 -179 3 -2 35 77 73 177 38 99 72 182 75 184 6 4
241 -767 236 -773 -2 -1 -87 59 -189 133 -137 99 -185 140 -180 151 3 8 -3 28
-15 43 -15 20 -17 32 -10 45 5 9 7 24 4 32 -3 8 19 127 49 265 30 138 55 253
56 257 0 4 9 -11 18 -33 13 -27 15 -44 8 -53z m143 -38 c11 -36 20 -71 20 -76
0 -6 -20 6 -46 27 -25 20 -47 35 -50 33 -2 -3 21 -25 52 -49 l56 -44 110 -365
c60 -201 110 -376 111 -390 3 -33 -12 -32 -67 7 -38 27 -48 41 -62 90 -9 32
-63 211 -120 398 -63 210 -99 344 -93 350 5 5 9 18 9 30 0 16 26 41 57 54 1 1
11 -29 23 -65z m1038 -75 c72 -75 132 -140 132 -145 0 -5 -24 -16 -54 -25
l-53 -16 -94 115 c-52 63 -97 120 -101 127 -10 16 13 87 26 83 6 -2 71 -64
144 -139z m912 71 c0 -14 -192 -624 -199 -632 -6 -7 -513 385 -519 402 -2 5
131 52 295 105 164 53 323 105 353 115 66 22 70 23 70 10z m707 -231 c3 -15
-688 -524 -710 -524 -14 0 -15 -27 14 414 17 263 23 327 36 336 12 9 85 -13
337 -101 194 -67 322 -117 323 -125z m-1626 -12 c12 -21 33 -13 -204 -77 -103
-28 -198 -55 -210 -60 -53 -21 13 -6 216 50 119 33 218 60 220 60 2 0 27 -29
55 -64 l52 -64 -55 -272 c-30 -150 -55 -274 -55 -276 0 -2 -28 -4 -63 -4 l-63
0 -169 196 c-94 108 -183 212 -198 230 l-28 33 22 43 c12 24 24 45 28 48 3 3
7 11 9 18 1 7 43 91 93 187 l90 174 37 3 c36 3 40 0 125 -102 48 -58 92 -113
98 -123z m2410 206 c-19 -84 -316 -941 -322 -931 -5 7 -8 0 -7 -17 0 -32 -19
-91 -28 -83 -2 3 -20 86 -38 184 l-34 178 97 108 c52 60 97 104 99 98 2 -5
-17 -107 -43 -226 -25 -119 -45 -218 -42 -220 2 -2 18 62 36 143 63 294 65
303 83 309 22 7 33 41 18 59 -8 10 -1 34 34 104 26 50 46 94 45 98 0 5 -23
-37 -52 -92 l-51 -100 -7 45 c-16 99 -17 97 101 238 61 73 112 132 114 132 2
0 1 -12 -3 -27z m-1476 -45 c-3 -35 -12 -171 -20 -303 -20 -318 -25 -375 -36
-375 -15 0 -139 102 -139 114 -1 14 192 626 197 626 2 0 1 -28 -2 -62z m-1700
-198 c88 -67 159 -126 157 -131 -1 -6 2 -18 7 -28 8 -14 -8 -57 -70 -191 -44
-95 -78 -174 -76 -176 4 -4 90 172 143 294 24 53 46 66 72 40 10 -10 11 -6 6
19 -5 26 -3 32 16 38 32 10 33 3 6 -46 -13 -24 -67 -128 -120 -231 -85 -164
-99 -185 -117 -181 -15 4 -20 12 -16 29 2 13 1 21 -3 19 -6 -4 -118 359 -211
678 l-8 27 27 -19 c15 -10 99 -74 187 -141z m918 -5 c-2 -40 -2 -40 7 -9 6 18
17 34 25 38 10 4 106 -65 273 -196 l259 -201 -30 -96 c-16 -53 -33 -100 -38
-106 -5 -5 -28 -15 -52 -22 -33 -10 -44 -10 -54 0 -6 7 -122 147 -258 312
l-246 300 38 12 c64 20 78 14 76 -32z m1677 -18 l124 -54 -3 -64 c-2 -57 -11
-78 -32 -79 -4 0 -46 46 -95 103 -48 56 -96 112 -107 125 -11 12 -18 22 -16
22 3 0 61 -24 129 -53z m-180 16 c0 -16 -5 -103 -12 -195 l-12 -168 -278 -90
c-152 -50 -290 -93 -306 -96 -37 -8 -112 29 -111 54 0 18 682 522 707 522 6 0
12 -12 12 -27z m158 -114 c83 -96 90 -109 84 -135 -7 -27 -17 -32 -126 -67
-65 -21 -120 -37 -122 -34 -9 9 20 362 30 369 12 8 11 10 134 -133z m376 45
c6 -52 4 -63 -10 -68 -19 -7 -86 14 -82 26 4 10 81 108 84 105 1 -1 4 -30 8
-63z m-131 -43 c9 -9 -60 -96 -77 -96 -11 0 -12 12 -8 94 l2 40 38 -15 c20 -9
41 -19 45 -23z m67 -27 c30 -12 40 -22 40 -39 0 -30 -171 -229 -182 -212 -14
23 -8 64 13 83 16 15 20 26 15 55 -5 31 -1 43 30 83 20 25 38 46 40 46 2 0 22
-7 44 -16z m-1780 -226 c104 -127 190 -234 190 -238 0 -3 -44 -20 -98 -38 -93
-30 -106 -32 -251 -32 l-153 0 5 23 c3 12 26 128 52 257 48 246 51 260 59 260
3 0 91 -104 196 -232z m-668 -60 c95 -112 180 -211 188 -221 13 -18 6 -18
-221 -12 -307 8 -314 9 -329 44 -11 27 -5 41 71 187 84 164 107 204 113 204 2
0 82 -91 178 -202z m-931 136 c3 3 83 -52 179 -123 l175 -127 22 -64 c12 -36
22 -69 22 -75 1 -5 -90 80 -201 190 l-202 200 192 -201 c146 -153 192 -208
192 -227 0 -15 10 -33 24 -44 20 -15 28 -42 54 -165 16 -82 27 -148 23 -148
-5 1 -484 743 -515 799 -8 14 -6 13 11 -2 11 -9 22 -15 24 -13z m3157 -16 c7
-10 -30 -79 -135 -253 -80 -132 -147 -242 -149 -244 -10 -12 -10 18 3 174 7
94 12 186 11 205 -2 19 -9 -32 -16 -115 -21 -253 -22 -260 -43 -273 -16 -10
-56 6 -271 115 l-253 127 415 137 c228 75 418 138 421 138 4 1 11 -5 17 -11z
m58 -57 c3 -14 8 -33 10 -42 3 -9 -20 -42 -54 -80 -31 -35 -86 -98 -121 -139
-49 -58 -53 -64 -15 -25 27 28 82 87 121 133 64 73 73 80 77 60 15 -64 56
-297 56 -312 0 -10 -6 -24 -14 -32 -8 -7 -16 -19 -18 -25 -5 -15 -352 -26
-362 -11 -11 18 11 59 150 289 138 227 156 247 170 184z m-1151 -73 c36 -28
65 -55 65 -59 0 -8 -189 -73 -195 -68 -2 2 7 37 20 76 29 93 33 103 40 103 3
0 35 -23 70 -52z m67 -134 c-7 -39 -9 -39 -95 -69 l-87 -30 -20 21 c-16 16
-19 26 -12 45 8 20 27 30 108 55 55 17 102 28 107 24 4 -3 4 -24 -1 -46z m98
26 c25 -13 31 -20 20 -24 -37 -14 -103 -36 -108 -36 -9 0 9 64 21 72 17 11 28
9 67 -12z m-1804 -46 c27 -21 33 -31 28 -50 -5 -18 2 -31 24 -54 27 -26 28
-30 11 -30 -13 0 -25 11 -33 31 -9 21 -16 27 -21 19 -4 -6 -11 -8 -15 -3 -10
10 -41 113 -34 113 3 0 21 -12 40 -26z m2125 -116 c167 -86 258 -138 256 -147
-1 -11 -342 -150 -454 -185 -16 -5 -48 15 -144 90 -68 54 -125 98 -127 99 -1
1 7 42 18 91 11 48 19 95 18 103 -2 9 -9 -11 -17 -44 -7 -33 -17 -77 -22 -98
l-10 -38 -38 28 c-85 64 -89 68 -84 96 5 24 18 30 167 81 88 30 165 55 169 55
5 1 125 -59 268 -131z m-648 102 c-3 -11 -10 -20 -17 -20 -6 0 -22 -3 -35 -7
-38 -10 -21 18 20 33 19 7 35 13 36 13 0 1 -1 -8 -4 -19z m-80 -33 c3 -7 -1
-21 -8 -30 -10 -14 -28 -17 -106 -16 l-94 1 80 28 c90 32 121 36 128 17z
m-893 -37 l225 -9 39 -41 c21 -23 34 -45 30 -50 -5 -4 -133 3 -284 16 -151 13
-285 23 -296 24 -30 0 -74 37 -67 55 6 18 33 18 353 5z m340 -34 c0 -26 -24
-51 -39 -42 -6 4 -20 20 -31 36 l-21 30 45 0 c42 0 46 -2 46 -24z m250 13 c41
0 122 -3 180 -6 103 -5 106 -6 122 -33 16 -27 15 -30 -49 -146 -36 -66 -68
-122 -71 -126 -11 -11 -397 195 -397 212 0 10 37 26 115 51 63 21 108 38 100
38 -8 0 -62 -14 -120 -33 -74 -24 -107 -30 -112 -22 -10 14 -10 61 -1 70 5 4
42 5 83 1 41 -3 109 -6 150 -6z m-942 -22 c9 -10 3 -12 -26 -8 -30 3 -33 5
-17 12 28 11 31 11 43 -4z m-68 -37 c0 -11 -4 -20 -8 -20 -5 0 -17 9 -27 20
-18 20 -17 20 8 20 20 0 27 -5 27 -20z m373 -238 c149 -136 290 -264 314 -285
54 -49 60 -91 13 -100 -43 -9 -643 222 -648 249 -2 11 -13 28 -23 40 -18 19
-19 34 -17 147 l3 126 334 -280 c183 -154 335 -278 337 -276 3 2 -147 132
-333 289 -307 258 -338 287 -341 317 l-3 33 47 -7 c45 -6 63 -21 317 -253z
m76 217 c208 -18 256 -24 271 -39 16 -16 17 -37 11 -248 l-6 -231 -265 240
c-146 132 -281 256 -300 275 l-35 35 35 -5 c19 -3 149 -15 289 -27z m-481 2
c21 -18 22 -26 21 -148 l-1 -128 -22 115 c-12 63 -25 130 -29 148 -7 37 -1 39
31 13z m1526 -32 l64 -51 -14 -51 c-7 -29 -23 -93 -34 -144 -16 -70 -26 -94
-40 -98 -12 -4 -63 17 -145 60 l-125 67 18 31 c11 18 43 76 73 130 34 63 57
96 66 93 7 -3 23 -1 35 4 35 13 34 14 102 -41z m-507 -120 c115 -60 192 -106
190 -113 -3 -6 -38 -71 -79 -145 l-74 -134 -101 -30 -101 -30 -36 29 -36 29 0
241 c0 132 3 244 7 247 14 15 43 3 230 -94z m1756 61 c-4 -3 -132 -78 -283
-165 -151 -87 -290 -168 -309 -179 -47 -27 -43 -19 72 157 81 123 99 145 125
150 18 4 33 14 37 26 6 19 16 21 178 23 174 3 196 2 180 -12z m-1050 -98 c59
-47 107 -88 107 -91 0 -11 -284 -111 -292 -103 -11 11 55 292 67 284 5 -3 58
-44 118 -90z m612 79 c3 -6 -8 -26 -25 -45 -17 -19 -33 -43 -35 -54 -4 -24
-135 -222 -146 -222 -25 0 -11 27 56 109 79 98 89 111 81 111 -2 0 -46 -52
-96 -115 -50 -63 -95 -115 -98 -115 -11 0 -197 151 -195 158 1 3 102 45 225
93 123 48 224 87 225 88 1 1 4 -3 8 -8z m240 -120 c-15 -12 -401 -271 -406
-271 -3 0 -5 8 -5 19 0 14 54 50 206 139 197 117 225 132 205 113z m-1095
-176 c0 -5 -88 -37 -195 -69 -108 -32 -194 -61 -191 -63 2 -2 89 21 192 52
150 44 194 54 211 46 13 -6 28 -8 35 -6 7 3 44 -23 81 -58 l69 -62 -236 -49
c-218 -45 -244 -48 -328 -42 -50 3 -93 8 -95 10 -6 6 40 96 49 96 4 0 8 5 8
11 0 7 33 72 72 145 l73 133 127 -67 c70 -37 128 -71 128 -77z m475 33 c117
-93 123 -110 46 -127 -25 -5 -106 -22 -179 -37 l-132 -27 -69 64 c-38 35 -69
71 -70 80 -1 12 26 27 97 54 53 21 117 46 142 56 25 10 49 18 53 18 5 1 55
-36 112 -81z m40 -209 c-37 -35 -71 -64 -76 -64 -5 0 -13 -4 -17 -10 -4 -5
-26 -10 -48 -10 -35 0 -51 8 -95 44 l-54 44 54 -55 c29 -31 51 -60 48 -65 -3
-5 -169 -9 -369 -10 -330 -2 -358 -1 -308 12 30 8 71 14 91 15 20 0 39 3 43 7
12 12 780 170 789 163 5 -4 -22 -36 -58 -71z m-955 15 c0 -4 -10 -23 -21 -44
l-22 -38 -56 5 c-96 10 -96 24 0 54 95 30 99 31 99 23z m-215 -33 c3 -5 1 -13
-5 -16 -14 -8 -40 13 -40 32 0 10 4 11 19 3 11 -5 22 -14 26 -19z m30 -30 c3
-5 -3 -12 -12 -14 -12 -3 -9 -5 8 -6 14 0 34 -10 45 -22 l19 -21 -45 18 c-54
20 -64 29 -56 43 9 13 33 14 41 2z m97 -33 c-17 -8 -26 -8 -34 0 -9 9 -4 12
23 11 32 0 33 -1 11 -11z m163 -6 l40 -7 -64 -12 c-63 -12 -91 -7 -91 18 0 11
58 11 115 1z"/>
<path d="M1914 4164 c-18 -14 -18 -15 4 -4 12 6 22 13 22 15 0 8 -5 6 -26 -11z"/>
<path d="M3175 3920 c10 -11 20 -20 23 -20 3 0 -3 9 -13 20 -10 11 -20 20 -23
20 -3 0 3 -9 13 -20z"/>
<path d="M690 3083 c-80 -80 -122 -128 -95 -105 67 54 262 252 250 252 -6 0
-75 -66 -155 -147z"/>
<path d="M3922 3350 c0 -19 2 -27 5 -17 2 9 2 25 0 35 -3 9 -5 1 -5 -18z"/>
<path d="M3933 3250 c0 -25 2 -35 4 -22 2 12 2 32 0 45 -2 12 -4 2 -4 -23z"/>
<path d="M3940 2880 c6 -11 13 -20 16 -20 2 0 0 9 -6 20 -6 11 -13 20 -16 20
-2 0 0 -9 6 -20z"/>
<path d="M4135 2596 c10 -14 19 -26 22 -26 7 0 -17 39 -28 46 -6 3 -3 -5 6
-20z"/>
<path d="M781 2624 c0 -11 3 -14 6 -6 3 7 2 16 -1 19 -3 4 -6 -2 -5 -13z"/>
<path d="M1992 1970 c0 -14 2 -19 5 -12 2 6 2 18 0 25 -3 6 -5 1 -5 -13z"/>
<path d="M3534 1288 l-19 -23 23 19 c12 11 22 21 22 23 0 8 -8 2 -26 -19z"/>
<path d="M3069 723 c-13 -16 -12 -17 4 -4 16 13 21 21 13 21 -2 0 -10 -8 -17
-17z"/>
<path d="M3019 663 l-24 -28 28 24 c25 23 32 31 24 31 -2 0 -14 -12 -28 -27z"/>
<path d="M2353 583 c9 -2 25 -2 35 0 9 3 1 5 -18 5 -19 0 -27 -2 -17 -5z"/>
<path d="M2473 573 c15 -2 39 -2 55 0 15 2 2 4 -28 4 -30 0 -43 -2 -27 -4z"/>
<path d="M2618 563 c17 -2 47 -2 65 0 17 2 3 4 -33 4 -36 0 -50 -2 -32 -4z"/>
</g>
</svg>
