<?xml version="1.0" encoding="utf-8"?>
<svg version="1.2" xmlns="http://www.w3.org/2000/svg" viewBox="0 0 170 41" width="170" height="41">
	<title>New Project</title>
  <defs>
    <style>
		.s0 { fill: #c12d19 } 
	</style>
  </defs>
  <g transform="matrix(0.028544, 0, 0, -0.028544, -113.258499, 227.646713)" fill="#C87766" stroke="none" style="">
    <path d="M9178 7693 l-3 -158 -68 -3 -68 -3 3 -67 3 -67 62 -3 c55 -3 63 -6 68 -25 3 -12 6 -153 7 -314 3 -277 4 -293 24 -319 46 -62 65 -69 200 -73 l124 -3 0 70 0 70 -65 4 c-51 3 -70 9 -88 26 -22 22 -22 27 -22 290 l0 267 88 3 87 3 0 72 0 72 -87 0 -88 0 -3 158 -3 157 -84 0 -84 0 -3 -157z"/>
    <path d="M5660 7555 c-145 -24 -247 -95 -309 -217 -35 -68 -61 -174 -61 -246 2 -159 100 -335 224 -399 131 -68 325 -69 457 -3 88 45 169 147 203 258 l7 22 -128 0 -128 -1 -20 -31 c-58 -90 -235 -91 -302 -1 -24 34 -47 99 -38 113 4 6 118 10 320 10 l315 0 -6 63 c-13 151 -47 238 -122 315 -70 71 -159 107 -302 125 -19 2 -69 -2 -110 -8z m195 -208 c38 -22 89 -92 79 -109 -3 -4 -86 -8 -185 -8 -171 0 -179 1 -179 20 0 26 55 88 94 105 51 22 145 18 191 -8z"/>
    <path d="M7480 7540 c-24 -5 -69 -22 -99 -37 -288 -140 -307 -630 -32 -797 222 -135 523 -50 610 172 12 29 21 57 21 62 0 6 -37 10 -84 10 l-84 0 -37 -55 c-49 -71 -99 -96 -189 -96 -40 0 -79 6 -101 17 -63 29 -168 195 -152 238 5 14 52 16 338 18 l333 3 -3 65 c-6 189 -104 325 -275 383 -61 21 -186 29 -246 17z m216 -162 c63 -29 139 -136 119 -167 -4 -7 -85 -11 -236 -11 -257 0 -255 -1 -221 67 65 126 207 173 338 111z"/>
    <path d="M8540 7541 c-51 -11 -79 -28 -132 -79 -27 -26 -48 -42 -49 -37 0 6 0 31 1 58 l1 47 -90 0 -91 0 0 -435 0 -435 90 0 90 0 0 265 c0 290 7 344 51 404 35 49 83 71 153 71 66 0 114 -26 140 -76 20 -36 21 -59 24 -351 l3 -313 90 0 89 0 0 287 c0 167 -5 314 -11 352 -20 115 -68 186 -148 222 -49 21 -157 32 -211 20z"/>
    <path d="M3970 7529 c0 -6 34 -123 84 -289 8 -25 24 -79 36 -120 12 -41 25 -86 30 -100 5 -14 18 -59 30 -100 83 -291 63 -260 162 -260 l83 0 58 198 c32 108 72 244 88 302 17 58 35 109 39 114 5 5 16 -18 25 -50 9 -33 20 -70 25 -84 5 -14 18 -59 30 -100 12 -41 28 -94 36 -118 8 -23 14 -48 14 -54 0 -6 14 -55 30 -109 l31 -99 83 0 82 0 23 73 c25 76 28 89 62 207 11 41 27 93 35 115 7 22 34 108 58 190 25 83 54 179 66 214 11 35 20 66 20 70 0 3 -43 5 -95 3 -94 -3 -95 -4 -101 -30 -3 -15 -15 -58 -25 -97 -20 -69 -29 -104 -64 -235 -10 -36 -23 -85 -30 -110 -8 -25 -17 -60 -20 -77 -4 -18 -11 -33 -15 -33 -5 0 -23 46 -40 103 -18 56 -38 120 -46 142 -7 22 -27 87 -44 145 -17 58 -38 124 -46 148 l-16 42 -78 0 -79 0 -11 -42 c-6 -24 -15 -54 -20 -68 -5 -14 -24 -77 -44 -140 -86 -284 -101 -330 -108 -330 -4 0 -10 12 -14 28 -3 15 -12 47 -19 72 -13 45 -34 120 -59 215 -37 140 -49 183 -60 220 l-11 40 -93 5 c-50 3 -92 2 -92 -1z"/>
    <path d="M6280 7526 c0 -3 36 -103 81 -223 119 -319 150 -405 159 -438 5 -16 18 -55 30 -85 12 -30 26 -70 31 -88 l10 -33 76 3 75 3 18 49 c11 26 35 96 55 155 20 58 40 115 45 126 10 22 38 98 47 130 4 11 10 23 15 26 8 5 41 85 59 144 5 17 13 39 18 50 5 11 22 57 39 103 l30 83 -101 -3 -101 -3 -73 -215 c-41 -118 -84 -245 -96 -283 -12 -37 -26 -66 -30 -64 -8 2 -69 177 -179 505 l-21 62 -93 0 c-52 0 -94 -2 -94 -4z"/>
    <path d="M9743 6859 c-65 -58 -73 -69 -73 -101 0 -38 28 -86 62 -104 81 -45 179 40 149 129 -23 64 -101 108 -138 76z"/>
  </g>
</svg>