<?xml version="1.0" encoding="utf-8"?>
<svg viewBox="149.427 450.286 1041.423 369.911" width="1041.423" height="369.911" xmlns="http://www.w3.org/2000/svg">
  <g transform="matrix(0.1, 0, 0, -0.1, 13.016641, 1369.661011)" fill="#62908a" stroke="none">
    <path d="M 8142.39 9159.577 C 7560.82 9063.317 7151.717 8778.549 6903.046 8289.229 C 6762.667 8016.493 6658.386 7591.346 6658.386 7302.566 C 6666.407 6664.846 7059.468 5958.941 7556.81 5702.248 C 8082.227 5429.513 8860.327 5425.502 9389.755 5690.216 C 9742.707 5870.703 10067.584 6279.807 10203.952 6725.008 L 10232.028 6813.246 L 9718.643 6813.246 L 9205.257 6809.235 L 9125.041 6684.9 C 8892.413 6323.926 8182.498 6319.915 7913.773 6680.889 C 7817.513 6817.257 7725.264 7077.96 7761.362 7134.112 C 7777.405 7158.177 8234.638 7174.22 9044.824 7174.22 L 10308.233 7174.22 L 10284.168 7426.902 C 10232.028 8032.536 10095.66 8381.477 9794.848 8690.311 C 9514.091 8975.079 9157.128 9119.469 8583.58 9191.663 C 8507.374 9199.685 8306.833 9183.642 8142.39 9159.577 Z M 8924.5 8325.326 C 9076.911 8237.088 9281.463 7956.33 9241.355 7888.146 C 9229.322 7872.103 8896.424 7856.06 8499.353 7856.06 C 7813.502 7856.06 7781.416 7860.071 7781.416 7936.276 C 7781.416 8040.558 8002.011 8289.229 8158.433 8357.413 C 8362.985 8445.651 8740.002 8429.607 8924.5 8325.326 Z" style=""/>
    <path d="M 1364.101 9055.296 C 1364.101 9031.231 1500.469 8561.964 1701.01 7896.168 C 1733.096 7795.897 1797.269 7579.313 1845.399 7414.869 C 1893.529 7250.426 1945.67 7069.939 1965.724 7013.787 C 1985.778 6957.636 2037.919 6777.149 2086.049 6612.705 C 2418.947 5445.556 2338.73 5569.891 2735.802 5569.891 L 3068.7 5569.891 L 3301.328 6364.034 C 3429.674 6797.203 3590.107 7342.675 3654.28 7575.302 C 3722.464 7807.93 3794.659 8012.482 3810.702 8032.536 C 3830.756 8052.59 3874.875 7960.341 3910.973 7831.995 C 3947.07 7699.638 3991.189 7551.237 4011.243 7495.086 C 4031.297 7438.934 4083.438 7258.447 4131.568 7094.004 C 4179.698 6929.56 4243.871 6716.986 4275.957 6620.727 C 4308.044 6528.478 4332.109 6428.207 4332.109 6404.142 C 4332.109 6380.077 4388.26 6183.547 4452.434 5966.963 L 4576.769 5569.891 L 4909.667 5569.891 L 5238.555 5569.891 L 5330.803 5862.681 C 5431.074 6167.504 5443.106 6219.645 5579.474 6692.921 C 5623.593 6857.365 5687.767 7065.928 5719.853 7154.166 C 5747.929 7242.404 5856.221 7587.335 5952.481 7916.222 C 6052.751 8249.12 6169.065 8634.159 6217.195 8774.538 C 6261.314 8914.917 6297.412 9039.252 6297.412 9055.296 C 6297.412 9067.328 6124.946 9075.35 5916.383 9067.328 C 5539.366 9055.296 5535.355 9051.285 5511.29 8947.003 C 5499.258 8886.841 5451.128 8714.376 5411.02 8557.954 C 5330.803 8281.207 5294.706 8140.828 5154.327 7615.411 C 5114.219 7471.021 5062.078 7274.491 5034.003 7174.22 C 5001.916 7073.95 4965.819 6933.571 4953.786 6865.387 C 4937.743 6793.192 4909.667 6733.03 4893.624 6733.03 C 4873.57 6733.03 4801.375 6917.528 4733.191 7146.144 C 4660.996 7370.75 4580.78 7627.443 4548.693 7715.681 C 4520.617 7803.919 4440.401 8064.623 4372.217 8297.25 C 4304.033 8529.878 4219.806 8794.592 4187.719 8890.852 L 4123.546 9059.306 L 3810.702 9059.306 L 3493.847 9059.306 L 3449.728 8890.852 C 3425.663 8794.592 3389.566 8674.267 3369.512 8618.116 C 3349.458 8561.964 3273.252 8309.283 3193.035 8056.601 C 2848.105 6917.528 2787.942 6733.03 2759.867 6733.03 C 2743.823 6733.03 2719.758 6781.16 2703.715 6845.333 C 2691.683 6905.495 2655.585 7033.841 2627.51 7134.112 C 2575.369 7314.599 2491.142 7615.411 2390.871 7996.439 C 2242.471 8557.954 2194.341 8730.419 2150.222 8878.819 L 2106.103 9039.252 L 1733.096 9059.306 C 1532.555 9071.339 1364.101 9067.328 1364.101 9055.296 Z" style=""/>
    <path d="M 11202.647 6368.045 C 10941.943 6135.417 10909.857 6091.298 10909.857 5962.952 C 10909.857 5810.541 11022.16 5618.021 11158.528 5545.826 C 11483.404 5365.339 11876.465 5706.259 11756.14 6063.222 C 11663.891 6319.915 11351.047 6496.391 11202.647 6368.045 Z" style=""/>
  </g>
</svg>